<svg width="97" height="100" viewBox="0 0 97 100" fill="none" xmlns="http://www.w3.org/2000/svg">
<path d="M29.413 8.47033C35.191 4.27335 38.08 2.17485 41.1592 1.13165C45.6129 -0.377215 50.4397 -0.377216 54.8934 1.13165C57.9726 2.17485 60.8616 4.27335 66.6397 8.47034L79.6325 17.908C83.0638 20.4003 84.7794 21.6465 86.178 23.1426C88.1991 25.3046 89.7496 27.8625 90.7313 30.6544C91.4106 32.5862 91.7217 34.6834 92.3437 38.8778L94.7493 55.099C95.8406 62.4574 96.3862 66.1366 95.8355 69.4527C95.0389 74.2494 92.6314 78.6317 89.01 81.8773C86.5064 84.1211 83.1081 85.6347 76.3115 88.6618L60.913 95.5203C56.8117 97.347 54.761 98.2604 52.6526 98.7272C49.6053 99.4018 46.4473 99.4018 43.4001 98.7272C41.2917 98.2604 39.241 97.347 35.1396 95.5203L19.7412 88.6618C12.9446 85.6347 9.54628 84.1211 7.04267 81.8773C3.42121 78.6317 1.01379 74.2494 0.217158 69.4527C-0.333571 66.1366 0.212057 62.4574 1.30331 55.099L3.70894 38.8778C4.33098 34.6834 4.642 32.5862 5.3213 30.6544C6.30304 27.8625 7.85351 25.3046 9.87469 23.1426C11.2732 21.6465 12.9889 20.4003 16.4201 17.908L29.413 8.47033Z" fill="#3D6FE8"/>
</svg>
